<?xml version="1.0" encoding="UTF-8"?>
<svg version="1.1" xmlns="http://www.w3.org/2000/svg" width="512" height="512">
<path d="M0 0 C3.27226846 3.09538909 5.08865741 5.78980146 5.515625 10.36328125 C5.40170355 13.75244434 5.04971389 16.22508533 2.95703125 18.95703125 C-6.19738451 27.23161758 -17.17074936 29.55511909 -29.1875 29.4375 C-29.97769531 29.44523437 -30.76789063 29.45296875 -31.58203125 29.4609375 C-40.96605975 29.43022055 -48.81428896 28.06071104 -55.6875 21.1875 C-56.48042035 14.27776549 -56.48042035 14.27776549 -53.6875 10.4375 C-44.17889569 3.30604677 -34.3366827 1.99294004 -22.6875 3.1875 C-18.11898116 4.46595819 -14.60761197 6.57409202 -10.6875 9.1875 C-9.875 11.125 -9.875 11.125 -9.6875 13.1875 C-11.6875 16.1875 -11.6875 16.1875 -13.8125 16.625 C-16.6417176 16.19446689 -17.7943818 15.60620509 -20.1875 14.1875 C-25.77318973 11.23099126 -31.52849096 11.40825798 -37.6875 12.1875 C-40.89447059 13.21231705 -43.77621945 14.50241772 -46.6875 16.1875 C-40.16553106 21.74325132 -30.9641992 20.72674385 -22.82177734 20.37548828 C-15.74549868 19.7522059 -8.7616739 17.2616739 -3.6875 12.1875 C-4.61639262 9.09465084 -5.20939311 7.52259793 -7.89453125 5.640625 C-8.75433594 5.24359375 -9.61414063 4.8465625 -10.5 4.4375 C-11.35207031 4.03015625 -12.20414062 3.6228125 -13.08203125 3.203125 C-23.82831342 -0.98583057 -38.07685132 0.10782815 -48.6875 4.1875 C-49.44804687 4.47753906 -50.20859375 4.76757812 -50.9921875 5.06640625 C-55.89193493 7.21116749 -58.02188741 9.39339864 -60.6875 14.1875 C-61.22588836 17.05996412 -61.20270989 19.85405426 -61.1484375 22.76953125 C-61.14752106 23.58314621 -61.14660461 24.39676117 -61.1456604 25.23503113 C-61.13964092 26.95044818 -61.12394472 28.66585553 -61.09912109 30.38110352 C-61.0627561 32.98168518 -61.05810131 35.58083179 -61.05859375 38.18164062 C-61.048755 39.85678293 -61.03709471 41.53191572 -61.0234375 43.20703125 C-61.02121185 43.97296097 -61.01898621 44.73889069 -61.01669312 45.5280304 C-60.84422485 55.54037808 -58.64460776 64.47555992 -51.96875 72.16796875 C-46.16423336 77.74648987 -38.78400532 81.17317282 -30.6875 81.6875 C-22.75828328 81.18379976 -15.15151228 77.85544725 -9.47265625 72.33984375 C-1.98116491 63.30743297 -0.51772792 53.46714828 0.3125 42.1875 C-0.6053125 42.46464844 -1.523125 42.74179688 -2.46875 43.02734375 C-19.70856906 48.11598782 -37.26945246 49.91481244 -53.6875 41.1875 C-56.25 39.4375 -56.25 39.4375 -57.6875 38.1875 C-57.3575 36.5375 -57.0275 34.8875 -56.6875 33.1875 C-54.17235881 32.24432205 -52.41212276 31.88347349 -49.890625 32.94140625 C-48.92382812 33.46541016 -48.92382812 33.46541016 -47.9375 34 C-35.07892278 40.94603517 -20.32205973 38.35906297 -6.6875 35.1875 C-4.925384 34.64185818 -3.17152411 34.06673617 -1.4375 33.4375 C2.17595428 32.23301524 3.79383225 31.86799959 7.3125 33.1875 C9.23887994 35.11387994 8.47926338 37.96063553 8.50317383 40.52368164 C8.48609894 54.5185224 7.23898012 65.78867116 -1.6875 77.1875 C-0.81867188 77.35765625 0.05015625 77.5278125 0.9453125 77.703125 C12.55642376 80.1448352 12.55642376 80.1448352 17.3125 84.1875 C18.158125 84.88875 19.00375 85.59 19.875 86.3125 C25.10836927 92.48519196 28.85514175 99.93656259 28.3125 108.1875 C27.54766223 111.61724419 26.52989292 114.8929734 25.3125 118.1875 C26.1375 118.14109375 26.9625 118.0946875 27.8125 118.046875 C47.98600539 117.41645296 66.33728579 124.60465178 81.2109375 138.19140625 C88.02284733 144.66551764 94.41349799 151.54753806 100.0625 159.0625 C104.07376411 164.32667711 108.50709955 170.02990128 115.3125 171.375 C119.94775102 171.56699265 123.5995669 169.8529772 127.3125 167.1875 C129.58557884 164.77665881 130.25060576 163.3015963 130.43359375 160.0078125 C130.23184279 156.03787429 129.75115813 153.76323879 127.3125 150.5625 C123.1007215 148.63210152 119.76153448 149.29575453 115.3125 150.1875 C115.3125 152.8275 115.3125 155.4675 115.3125 158.1875 C115.869375 157.8575 116.42625 157.5275 117 157.1875 C119.75044976 155.99811632 121.35224275 155.65617178 124.3125 156.1875 C126.25 158.3125 126.25 158.3125 127.3125 161.1875 C126.6875 164.4375 126.6875 164.4375 125.3125 167.1875 C120.50385086 168.79038305 116.14178589 168.95986515 111.5 167 C108.20918976 164.27332866 106.54927023 162.15626067 106.02734375 157.81640625 C105.85671118 152.82354899 105.94736059 149.13283586 109.3125 145.1875 C114.12184027 140.85909376 117.72634118 139.87431266 124.03515625 139.9765625 C128.99785285 140.43622908 131.69292908 142.53976677 135.0625 146.0625 C139.11433317 151.69004607 140.18159253 156.33503967 139.3125 163.1875 C137.71713546 169.31652707 134.91739913 173.40699209 129.68359375 176.96875 C125.44815043 179.14578182 120.95249756 180.21514757 116.3125 181.1875 C123.65059743 191.16372669 131.1838981 200.8439915 139.3125 210.1875 C140.05628906 211.06664062 140.80007813 211.94578125 141.56640625 212.8515625 C145.18126021 217.06317603 148.46468963 220.37576999 153.3125 223.1875 C154.08722656 223.68121094 154.86195313 224.17492187 155.66015625 224.68359375 C163.26351532 229.46579696 170.30251658 232.69597744 179.47265625 230.72265625 C186.56353796 228.66715195 192.92441179 225.0915046 196.8125 218.625 C199.43748752 212.49218163 199.76268656 204.94966432 197.359375 198.71484375 C194.4391216 193.77074384 190.84841856 190.03280619 185.3125 188.1875 C179.04784155 187.65659674 174.46075129 188.39715903 169.3125 192.1875 C166.62683209 195.68700667 166.07832084 198.44371448 166.25 202.75 C166.76330907 206.2834764 167.63191821 207.96193178 170.375 210.25 C171.344375 210.889375 172.31375 211.52875 173.3125 212.1875 C173.4053125 210.5478125 173.4053125 210.5478125 173.5 208.875 C174.3125 205.1875 174.3125 205.1875 176.4375 203.1875 C180.19750228 201.87967312 182.49323777 202.12659383 186.3125 203.1875 C189.1084406 205.53248244 189.28730138 206.98951085 189.75 210.625 C189.23350089 214.8307785 188.41095767 216.33365741 185.3125 219.1875 C179.69449785 221.80923434 174.6508008 221.88488796 168.75 220.125 C163.57850339 217.21015646 160.44838057 213.61415394 157.9375 208.25 C156.55954512 201.49802107 156.64411601 195.16304373 160.3125 189.1875 C165.37156504 183.57292978 170.1220402 179.69830715 177.7734375 178.9453125 C185.70547343 178.5675965 192.53057245 179.85580192 198.609375 185.2109375 C204.87759624 191.91381642 207.88718993 198.33077381 207.8125 207.5 C207.81185547 208.24113037 207.81121094 208.98226074 207.81054688 209.74584961 C207.63910129 216.08449694 205.92851124 220.93136938 202.3125 226.1875 C209.71626909 220.67771835 214.61683323 213.35714414 216.3125 204.1875 C217.22412908 193.4369473 216.36518508 184.79187569 210.625 175.4375 C204.41402264 169.39438689 197.64031009 165.37735515 188.8046875 165.0625 C187.61101562 165.10375 186.41734375 165.145 185.1875 165.1875 C172.03041321 165.34335888 158.91031147 163.61757731 148.3125 155.1875 C143.04323765 149.89290466 140.15470575 145.31330495 139.8984375 137.66796875 C139.85976563 136.64638672 139.82109375 135.62480469 139.78125 134.57226562 C139.7503125 133.51716797 139.719375 132.46207031 139.6875 131.375 C139.64882813 130.30056641 139.61015625 129.22613281 139.5703125 128.11914062 C139.47631387 125.47542912 139.39065427 122.8317195 139.3125 120.1875 C138.29929687 120.33058594 138.29929687 120.33058594 137.265625 120.4765625 C136.37359375 120.58742187 135.4815625 120.69828125 134.5625 120.8125 C133.68078125 120.92851562 132.7990625 121.04453125 131.890625 121.1640625 C129.01188102 121.1902329 127.6514993 120.84710039 125.3125 119.1875 C123.53123677 114.6956188 122.81198886 111.68048745 124.375 107.0625 C128.60717604 97.74444718 136.55672701 92.51000489 145.875 88.75 C151.98412875 87.75032439 157.11198859 87.22236342 162.875 89.75 C165.3125 92.1875 165.3125 92.1875 166.4375 95.5625 C166.2863407 99.94611959 164.84726875 101.70219296 162.3125 105.1875 C162.97446765 108.19485406 162.97446765 108.19485406 164.89135742 109.24316406 C165.56013916 109.55995117 166.2289209 109.87673828 166.91796875 110.203125 C167.65466797 110.56792969 168.39136719 110.93273437 169.15039062 111.30859375 C170.69483779 112.05064733 172.24166018 112.78778111 173.79101562 113.51953125 C180.06278301 116.64181614 184.45469941 120.3667403 187.5546875 126.7421875 C190.45494088 137.37644988 189.06971729 145.56893104 186.3125 156.1875 C186.99054688 156.21328125 187.66859375 156.2390625 188.3671875 156.265625 C200.6868201 157.01640593 208.96834367 160.96576861 217.3125 170.1875 C225.38593697 181.28013551 226.44712851 191.84426874 225.3125 205.1875 C223.76831718 213.25936472 220.24412746 219.6985165 215.3125 226.1875 C214.2296875 227.734375 214.2296875 227.734375 213.125 229.3125 C205.4986635 238.11589165 193.47896615 242.51033764 182.14453125 243.34765625 C164.40012992 243.99649763 151.58528652 235.33271535 139.01953125 223.8671875 C132.79132502 217.70189244 127.18507195 210.88988822 121.796875 203.984375 C116.62415874 197.40411691 113.05043383 193.56580802 104.875 191.1875 C100.18557619 191.1875 97.11179253 192.49205597 93.3125 195.1875 C90.76040759 198.13835685 90.35411848 199.79906087 89.9375 203.6875 C90.33390209 207.38725288 91.07080701 209.25605532 93.3125 212.1875 C96.33118434 213.69684217 98.98547229 213.36260672 102.3125 213.1875 C103.7975 212.1975 103.7975 212.1975 105.3125 211.1875 C105.56265873 207.60392759 105.56265873 207.60392759 105.3125 204.1875 C104.3225 203.8575 103.3325 203.5275 102.3125 203.1875 C102.3125 203.8475 102.3125 204.5075 102.3125 205.1875 C98.9375 205.8125 98.9375 205.8125 95.3125 206.1875 C93.3125 204.1875 93.3125 204.1875 92.875 200.75 C93.3125 197.1875 93.3125 197.1875 95.375 195.25 C99.92632507 193.60377604 103.53132757 193.40047032 108 195.375 C111.58285022 198.18317991 113.84759558 200.65995691 115.1875 205.0625 C115.39976363 210.36909078 114.37707404 213.92682022 110.9375 218 C106.01587427 222.10135478 102.39425621 222.6349108 96.0703125 222.5 C91.79684896 222.01575484 89.72581738 220.83456246 86.3125 218.1875 C81.28735172 211.70770354 80.55644949 206.1862953 81.3125 198.1875 C82.84704102 192.45985008 86.12899695 188.78007206 90.94140625 185.44140625 C95.15989199 183.21054311 99.66540329 182.16134012 104.3125 181.1875 C87.74650343 157.62848029 70.21163347 133.0884076 39.88671875 127.62109375 C22.86673394 125.55637428 7.79998309 128.37332663 -6.00390625 138.96484375 C-17.90928476 149.98489078 -23.87304991 165.31557597 -24.80859375 181.25 C-25.2614231 196.16673145 -20.73639248 209.13371827 -10.6875 220.1875 C-3.557903 227.55475023 5.13413662 232.5516916 15.3125 234.1875 C16.240625 234.34476563 17.16875 234.50203125 18.125 234.6640625 C26.8740357 235.8023299 33.50210234 234.15552282 40.6875 229 C46.42055836 222.85743747 48.42702384 215.49684059 48.3125 207.1875 C47.54864471 199.23165336 45.29335141 194.03874917 39.4375 188.4375 C33.76718026 184.35486978 28.17824798 183.25812633 21.3125 184.1875 C15.45705796 186.00506226 12.23279233 188.69735041 9.3125 194.1875 C7.72950415 198.93648755 7.76042104 202.75209472 9.5625 207.4375 C11.81726112 211.02294907 11.81726112 211.02294907 15.3125 213.1875 C18.34589637 213.52875709 21.28851309 213.63701157 24.3125 213.1875 C24.9725 212.5275 25.6325 211.8675 26.3125 211.1875 C25.631875 210.506875 24.95125 209.82625 24.25 209.125 C22.3125 206.1875 22.3125 206.1875 22.375 202.5625 C23.7125 197.7475 23.7125 197.7475 26.3125 196.1875 C29.6875 195.1875 29.6875 195.1875 33.3125 195.1875 C36.25 196.9375 36.25 196.9375 38.3125 200.1875 C39.23041276 205.49367991 39.00604946 209.77471407 36.625 214.625 C32.12880694 219.60726798 28.64659645 221.95373502 22.00390625 223.0625 C15.90194344 223.3459003 11.02342768 221.26475076 5.9375 218.0625 C0.42285512 212.02265084 -1.35541158 205.95419687 -1.00390625 197.82421875 C-0.13986178 190.62384816 2.84599526 184.99509569 8.3125 180.1875 C16.63366503 174.98677186 25.42709258 173.65849156 35.07421875 175.80078125 C43.59764423 178.83817149 50.22992671 184.33084301 54.3125 192.4375 C57.94020504 201.48174395 57.67929216 210.6830376 56.3125 220.1875 C62.18259543 212.09001658 65.82956423 202.29557965 64.3125 192.1875 C62.28629063 184.20858512 59.03227994 176.56369295 52.171875 171.65625 C45.17664086 167.56380009 38.49836986 165.9977437 30.44921875 165.7265625 C28.3125 165.1875 28.3125 165.1875 26.95703125 163.3359375 C26.3125 161.1875 26.3125 161.1875 27.3125 158.1875 C32.97028437 155.35860782 40.15680803 157.19067606 45.9375 158.8125 C56.02579451 162.20680308 64.71874509 169.2278363 69.66796875 178.8125 C74.92850941 191.57453365 74.10787137 203.47228488 69.5390625 216.37109375 C64.91916123 226.90362096 54.89256724 235.71801 44.875 241 C29.43607323 246.14630892 14.15959023 245.08409885 -0.796875 238.90234375 C-10.9201307 233.76922398 -20.54457412 225.47335175 -25.6875 215.1875 C-25.70731934 216.23728027 -25.72713867 217.28706055 -25.74755859 218.36865234 C-25.82352198 222.25643261 -25.91225298 226.14383403 -26.00488281 230.03125 C-26.04321104 231.71509329 -26.07805712 233.39901955 -26.109375 235.08300781 C-26.15494287 237.50095306 -26.21294923 239.91832528 -26.2734375 242.3359375 C-26.28498871 243.0911972 -26.29653992 243.84645691 -26.30844116 244.62460327 C-26.45975659 249.95975659 -26.45975659 249.95975659 -28.6875 252.1875 C-33.24305556 251.63194444 -33.24305556 251.63194444 -34.6875 250.1875 C-34.84746166 247.59596893 -34.94688697 245.0279798 -35.00390625 242.43359375 C-35.02468735 241.65814713 -35.04546844 240.8827005 -35.06687927 240.08375549 C-35.13245802 237.59759692 -35.19129799 235.11132955 -35.25 232.625 C-35.29317733 230.94334796 -35.33679136 229.26170706 -35.38085938 227.58007812 C-35.48814779 223.44933129 -35.58939132 219.31847464 -35.6875 215.1875 C-36.15728271 215.86731934 -36.62706543 216.54713867 -37.11108398 217.24755859 C-37.73313721 218.14297363 -38.35519043 219.03838867 -38.99609375 219.9609375 C-39.61025146 220.84700684 -40.22440918 221.73307617 -40.85717773 222.64599609 C-49.65833934 234.86689676 -63.13635093 241.39606817 -77.72802734 243.91064453 C-92.2953959 245.96887976 -105.3213247 242.60951783 -117.1875 234.125 C-126.93546972 226.22897617 -132.68315277 215.49456663 -134.6875 203.1875 C-135.58934064 189.9547229 -133.04121248 178.63484151 -124.1640625 168.4375 C-116.47608077 161.23704882 -106.46408213 157.03394862 -96 157.0625 C-95.04738281 157.05992187 -94.09476563 157.05734375 -93.11328125 157.0546875 C-90.6875 157.1875 -90.6875 157.1875 -88.6875 158.1875 C-88.64495644 160.18704746 -88.64669217 162.18791636 -88.6875 164.1875 C-90.59026538 166.09026538 -94.07695707 165.68295026 -96.625 165.9375 C-106.54214736 167.13950719 -113.89805455 170.15659875 -120.28515625 178.13671875 C-125.03413523 185.08160445 -126.57565944 192.88990084 -125.6875 201.1875 C-124.00215233 208.40043873 -121.73481485 214.97198076 -117.6875 221.1875 C-117.78289062 220.14851562 -117.87828125 219.10953125 -117.9765625 218.0390625 C-118.95817787 206.26109251 -118.96162949 196.14546862 -111.6875 186.1875 C-105.92494638 179.69339726 -99.12927375 175.82965578 -90.4765625 174.80859375 C-81.84224371 174.49663118 -75.97931118 176.32629255 -68.875 181.0625 C-63.14739644 186.62645774 -60.65985388 192.56165919 -60.25 200.4375 C-60.3981809 207.23529878 -62.5861473 212.83426078 -67.2265625 217.8515625 C-72.22670636 221.90381179 -78.48683478 223.42170975 -84.859375 223.06640625 C-90.19695811 222.06302338 -94.11776023 219.22034115 -97.6875 215.1875 C-100.41393487 210.5599796 -101.27714237 205.59967334 -100 200.375 C-98.43004898 197.75841497 -97.44924248 196.5310504 -94.6875 195.1875 C-91.25930074 195.30778769 -88.74024169 195.5207636 -85.8125 197.375 C-84.16488308 200.02949392 -83.81216901 202.07077487 -83.6875 205.1875 C-85 208.0625 -85 208.0625 -86.6875 210.1875 C-87.3475 210.1875 -88.0075 210.1875 -88.6875 210.1875 C-87.696745 211.85391006 -87.696745 211.85391006 -85.6875 213.1875 C-80.89052042 213.73797307 -78.64885831 213.66817916 -74.3125 211.5 C-70.50861641 208.1489597 -69.87373579 205.8325828 -69.3125 200.875 C-69.77914762 196.2862984 -71.01535427 192.94648176 -73.6875 189.1875 C-79.55297063 184.51906419 -84.41190234 183.57232752 -91.6875 184.1875 C-97.8645949 185.32508654 -101.25837043 188.32969516 -105.2421875 193.0546875 C-109.74302306 199.69646106 -110.49179732 208.09476838 -109.0625 215.875 C-107.27662009 222.56306034 -103.6510138 228.52807108 -97.6875 232.1875 C-89.64262277 236.74016916 -80.33456019 235.14595932 -71.6875 233.1875 C-58.83228045 229.06151337 -48.9070159 220.44735896 -42.4375 208.6875 C-35.40852586 193.72501886 -35.22881453 177.76506808 -40.5390625 162.2109375 C-45.5701477 148.96583566 -53.58805974 138.32167898 -66.6875 132.1875 C-83.0440822 125.35388749 -99.12271801 125.54684761 -115.57617188 131.91894531 C-124.4024209 135.63157387 -131.64356274 140.76814831 -138.6875 147.1875 C-139.29722656 147.72761719 -139.90695313 148.26773438 -140.53515625 148.82421875 C-150.7412777 158.40301358 -158.68995463 170.77234847 -166.6875 182.1875 C-166.130625 182.21328125 -165.57375 182.2390625 -165 182.265625 C-158.2883954 182.76446048 -152.60331121 184.04349487 -147.890625 189.125 C-142.831199 195.67816129 -142.04023251 200.98485568 -142.6875 209.1875 C-144.52922709 214.42188224 -147.73737795 218.39478191 -152.51953125 221.30078125 C-157.40865148 223.30047547 -163.13422743 223.08448301 -168.078125 221.34765625 C-172.47335956 218.93027724 -175.00202523 216.22153345 -176.4140625 211.37109375 C-176.91686259 207.35587588 -176.26348466 203.8977778 -174.6875 200.1875 C-172.0876194 196.98764695 -170.59100005 195.48866668 -166.6875 194.1875 C-159.16877341 193.77738764 -159.16877341 193.77738764 -155.6875 196.1875 C-154.30624982 198.95000036 -154.49670694 201.13481099 -154.6875 204.1875 C-155.3475 204.8475 -156.0075 205.5075 -156.6875 206.1875 C-160.3125 205.8125 -160.3125 205.8125 -163.6875 205.1875 C-163.6875 204.5275 -163.6875 203.8675 -163.6875 203.1875 C-164.6775 203.5175 -165.6675 203.8475 -166.6875 204.1875 C-166.93765873 207.60392759 -166.93765873 207.60392759 -166.6875 211.1875 C-162.9669164 213.66788907 -161.08953429 213.65087203 -156.6875 213.1875 C-154.32252561 211.32041495 -153.02719285 209.86688569 -151.6875 207.1875 C-151.29710654 203.12740798 -151.4674339 200.66430989 -153.1875 196.9375 C-156.36577283 193.44139989 -159.02077277 191.921314 -163.6875 191.1875 C-169.48214856 191.33684661 -173.72580784 193.28752167 -177.890625 197.2421875 C-181.70933385 201.37635491 -185.17696604 205.79233387 -188.6875 210.1875 C-200.71536806 225.06701422 -213.38869337 238.45235681 -232.6875 242.875 C-245.45285381 244.20472435 -258.60247587 241.79505465 -269.22265625 234.2890625 C-278.38846697 226.47415574 -285.70224326 215.44414741 -286.88037109 203.1796875 C-287.36534249 190.43522709 -286.80129468 180.11345198 -278.375 169.8125 C-277.1756197 168.57459571 -275.9465192 167.36469615 -274.6875 166.1875 C-274.10355469 165.63320313 -273.51960938 165.07890625 -272.91796875 164.5078125 C-265.93385571 158.59704736 -256.77038934 155.83291273 -247.6875 156.1875 C-247.9040625 155.35347656 -248.120625 154.51945313 -248.34375 153.66015625 C-251.14030988 142.35739339 -252.38554402 132.6661249 -246.52734375 122.09375 C-241.00274978 114.66869571 -231.79968202 111.12952771 -223.6875 107.1875 C-224.81201727 104.2155615 -225.91043791 101.85309313 -227.6875 99.1875 C-227.6875 95.75 -227.6875 95.75 -226.6875 92.1875 C-223.39093878 88.89093878 -220.54330852 87.9117716 -216 87.6875 C-206.14971855 88.14599658 -197.65248083 92.29244869 -190.6875 99.1875 C-187.28835637 103.39170396 -184.6875 107.65346767 -184.6875 113.1875 C-185.75 117 -185.75 117 -187.6875 120.1875 C-192.15087459 121.81054531 -196.07941175 120.88635699 -200.6875 120.1875 C-200.6968457 120.84234375 -200.70619141 121.4971875 -200.71582031 122.171875 C-200.7699526 125.17780905 -200.85351389 128.18225775 -200.9375 131.1875 C-200.95167969 132.21746094 -200.96585937 133.24742187 -200.98046875 134.30859375 C-201.22446092 141.96994783 -202.51139368 147.4775943 -207.546875 153.359375 C-219.43264298 163.28055323 -232.12180128 165.48976047 -247.375 165.0625 C-256.32374438 165.01114422 -263.92738946 168.34623944 -270.6875 174.1875 C-278.0162557 183.12109271 -278.55617475 193.12275538 -277.6875 204.1875 C-275.88883433 211.90336692 -271.36055547 220.73879636 -264.6875 225.1875 C-264.97625 224.7234375 -265.265 224.259375 -265.5625 223.78125 C-269.86931883 215.76578161 -270.1330221 206.20908319 -268.02734375 197.4375 C-265.09602477 190.12823709 -260.1193294 183.92868348 -252.875 180.6875 C-245.76711709 178.2606811 -238.59510506 178.06546149 -231.63671875 181.0859375 C-225.71431862 184.43286503 -221.05805828 188.50604059 -219.0859375 195.15234375 C-217.81740393 201.63181424 -218.47107033 207.35696832 -221.6875 213.1875 C-224.95901637 217.54952182 -228.25146972 220.07810606 -233.6875 221.1875 C-239.1515559 221.68423235 -242.85482053 220.78971202 -247.6875 218.1875 C-250.45147262 215.6910086 -250.6605843 214.43871319 -251.0625 210.6875 C-250.51281646 205.55712025 -250.51281646 205.55712025 -247.6875 203.1875 C-243.86823777 202.12659383 -241.57250228 201.87967312 -237.8125 203.1875 C-234.87650749 205.95078707 -234.90975184 208.26105089 -234.6875 212.1875 C-230.3674435 209.40823507 -230.3674435 209.40823507 -227.9609375 205.0625 C-227.41364917 201.29511984 -227.58294945 198.55691193 -228.625 194.875 C-231.81267874 190.721358 -235.60790584 188.69980632 -240.77734375 187.83984375 C-245.48376587 187.63207464 -248.80525982 188.59933988 -252.6875 191.1875 C-257.71073564 196.15507652 -259.97887508 200.37955654 -260.0625 207.4375 C-259.92376703 214.32019667 -258.9383681 219.0373225 -253.921875 223.8984375 C-247.97581465 228.69742321 -241.54536818 231.83415788 -233.75 231.46875 C-225.90329047 230.39874416 -219.99151211 226.77429017 -213.6875 222.1875 C-213.03007812 221.74664062 -212.37265625 221.30578125 -211.6953125 220.8515625 C-197.60376114 211.0610469 -187.48476932 195.02320012 -177.6875 181.1875 C-178.55632812 180.95675781 -179.42515625 180.72601563 -180.3203125 180.48828125 C-193.93987236 176.63397628 -193.93987236 176.63397628 -197.92578125 170.18359375 C-200.94705174 164.21372937 -202.06610605 158.48596269 -199.9921875 152.01953125 C-197.8071205 147.12608288 -195.05053857 144.25091006 -190.6875 141.1875 C-185.46976417 139.44825472 -180.52206678 139.49521065 -175.375 141.4375 C-171.55861888 143.92258538 -169.1450696 145.8147912 -167.6875 150.1875 C-167.15720552 155.23833759 -167.13987285 159.09224571 -169.4375 163.6875 C-172.12106811 166.66924235 -173.56015518 167.98531434 -177.578125 168.3671875 C-184.80582061 168.60811069 -184.80582061 168.60811069 -187.6875 166.1875 C-188.99053251 162.97335313 -188.85527454 161.60693634 -187.5625 158.375 C-185.6875 156.1875 -185.6875 156.1875 -183.25 155.75 C-180.69509378 156.1862035 -178.90686753 156.87231924 -176.6875 158.1875 C-176.24104766 153.88647544 -176.24104766 153.88647544 -178.25 150.25 C-181.74666486 148.72581275 -184.04064716 149.25921019 -187.6875 150.1875 C-189.71084611 151.75750205 -190.56023944 152.78742938 -191.33984375 155.23828125 C-191.86184171 159.37851165 -191.91951052 161.66547632 -190.1875 165.5625 C-186.1160451 169.83752765 -182.62094395 171.12612083 -176.75 171.3125 C-167.16556998 169.51312425 -160.88314724 158.85593377 -155.01611328 151.78466797 C-140.64741624 134.51160365 -123.35299145 121.57306869 -100.6875 118.1875 C-98.25083235 118.12048494 -95.81248258 118.10221979 -93.375 118.125 C-92.12074219 118.13402344 -90.86648437 118.14304687 -89.57421875 118.15234375 C-88.62160156 118.16394531 -87.66898438 118.17554688 -86.6875 118.1875 C-86.91566406 117.57003906 -87.14382812 116.95257813 -87.37890625 116.31640625 C-90.18352712 108.05346493 -90.21513102 102.14791082 -86.6875 94.125 C-82.93594225 87.20402276 -77.49720868 81.87971232 -70 79.25 C-66.60825857 78.28549349 -63.16770407 77.74015043 -59.6875 77.1875 C-60.41066406 76.10082031 -60.41066406 76.10082031 -61.1484375 74.9921875 C-61.78007812 74.02539062 -62.41171875 73.05859375 -63.0625 72.0625 C-63.68898437 71.11117187 -64.31546875 70.15984375 -64.9609375 69.1796875 C-69.50404798 61.30633314 -69.84427981 52.90888656 -69.890625 44.03515625 C-69.89632507 43.17619247 -69.90202515 42.3172287 -69.90789795 41.43223572 C-69.9172974 39.62451389 -69.92386168 37.81677532 -69.92773438 36.0090332 C-69.93745903 33.2615757 -69.96853787 30.51486119 -70 27.76757812 C-70.00652977 26.00260856 -70.01178034 24.23763371 -70.015625 22.47265625 C-70.0279718 21.66095474 -70.0403186 20.84925323 -70.05303955 20.01295471 C-70.02934545 13.8734392 -69.03476036 8.31930662 -65.25 3.26953125 C-47.62582487 -11.05011105 -18.89643011 -12.74410403 0 0 Z M-77.2421875 94.37109375 C-81.40355114 99.60091563 -81.40370116 104.70496132 -80.6875 111.1875 C-79.38446235 115.69040227 -76.87693672 118.38255215 -72.8125 120.625 C-69.30264651 122.13573471 -66.53126581 122.78541913 -62.6875 122.1875 C-58.55981236 120.36363802 -56.47792098 118.33373807 -54.6875 114.1875 C-54.43650133 110.47856092 -54.43650133 110.47856092 -54.6875 107.1875 C-55.3475 107.538125 -56.0075 107.88875 -56.6875 108.25 C-60.7388091 109.51603409 -63.52124555 108.89364482 -67.6875 108.1875 C-68.70396402 103.8167047 -68.89701146 101.16462063 -66.6875 97.1875 C-63.2166881 94.8736254 -61.69693962 95.13612822 -57.6875 95.77734375 C-55.12338637 96.30318737 -52.98052809 96.90610195 -50.6875 98.1875 C-47.10113013 103.74637329 -47.19183815 109.78979063 -47.6875 116.1875 C-49.45021409 121.47564226 -52.36590091 123.9222918 -56.6875 127.1875 C-53.4294225 130.56109402 -53.4294225 130.56109402 -49.85546875 133.5859375 C-43.05727133 138.86895482 -39.59854312 145.68786678 -35.6875 153.1875 C-35.3575 153.1875 -35.0275 153.1875 -34.6875 153.1875 C-34.61272079 147.54991476 -34.5586035 141.91262535 -34.52270508 136.2746582 C-34.50772217 134.36119551 -34.48732874 132.44776653 -34.46118164 130.53442383 C-34.01364693 109.88646801 -34.01364693 109.88646801 -43.6875 92.1875 C-54.667226 83.24105659 -67.7580549 84.51200707 -77.2421875 94.37109375 Z M-19.6875 94.1875 C-25.73444975 102.82120048 -27.00834977 111.69339615 -26.8828125 122.03515625 C-26.8799826 122.93245956 -26.87715271 123.82976288 -26.87423706 124.7542572 C-26.86314979 127.58631414 -26.83806747 130.41804061 -26.8125 133.25 C-26.80245537 135.18424019 -26.79333213 137.11848539 -26.78515625 139.05273438 C-26.76324814 143.7644479 -26.72879901 148.47591816 -26.6875 153.1875 C-24.39710739 150.18397419 -22.43294 147.12105364 -20.5 143.875 C-17.19301338 138.62025431 -13.49942266 135.02868772 -8.6875 131.1875 C-7.33739719 129.87114976 -5.99335054 128.54776098 -4.6875 127.1875 C-6.0796875 126.135625 -6.0796875 126.135625 -7.5 125.0625 C-11.37305972 121.76627896 -13.3695898 118.78180425 -14.00390625 113.60546875 C-14.27320891 107.2551384 -13.66146627 103.20724686 -9.6875 98.1875 C-5.67427603 95.48293602 -2.50301932 94.55938878 2.3125 95.1875 C5.16439344 96.65198582 6.08443872 97.52085933 7.125 100.5625 C7.32198467 103.32028534 6.99870088 105.51894102 6.3125 108.1875 C1.27738101 109.1945238 -1.92697038 109.16137813 -6.6875 107.1875 C-7.11147033 111.42720328 -7.12542242 114.17092177 -4.4375 117.5 C-0.585725 121.26423466 0.63255441 122.15950091 6.0625 122.25 C11.40407291 121.40975258 14.85969388 118.1759443 18.3125 114.1875 C20.41224961 110.23997073 20.70917293 106.77809995 19.9765625 102.33984375 C18.21985616 96.64604849 14.78997832 91.7141115 9.625 88.6875 C-0.7972486 83.9679912 -11.69491999 85.8316209 -19.6875 94.1875 Z M-34.6875 90.1875 C-33.6975 92.1675 -32.7075 94.1475 -31.6875 96.1875 C-31.0275 96.1875 -30.3675 96.1875 -29.6875 96.1875 C-28.6975 94.2075 -27.7075 92.2275 -26.6875 90.1875 C-29.3275 90.1875 -31.9675 90.1875 -34.6875 90.1875 Z M-218.6875 96.1875 C-218.1925 97.21875 -217.6975 98.25 -217.1875 99.3125 C-215.35239472 103.64684389 -214.85754813 107.07615801 -216.62109375 111.5625 C-220.19116227 116.0976343 -225.5723814 117.88672519 -230.72851562 120.26171875 C-236.50183892 123.08343611 -239.18187887 125.20222272 -241.6875 131.1875 C-243.52301716 137.99157224 -242.4150309 144.47725599 -240.6875 151.1875 C-238.50037195 149.58545381 -238.50037195 149.58545381 -236.6875 147.1875 C-236.88434346 144.33231791 -236.88434346 144.33231791 -237.6875 141.1875 C-238.16456597 136.12861298 -238.02825843 132.24413524 -234.6875 128.1875 C-230.48355986 125.64183049 -226.48298803 125.48530354 -221.6875 126.1875 C-218.08520256 128.33354954 -216.24888647 130.3403 -214.6875 134.1875 C-214.36533526 138.8051946 -215.08014738 142.29545084 -217.6875 146.125 C-221.1086017 148.47700742 -223.70967472 148.90533525 -227.7265625 149.5859375 C-229.99939681 150.04306764 -229.99939681 150.04306764 -231.25 152.8125 C-231.394375 153.59625 -231.53875 154.38 -231.6875 155.1875 C-222.71363602 154.439678 -216.5858127 150.94898042 -210.6875 144.1875 C-209.73849356 141.34048068 -209.53904032 139.43709403 -209.4765625 136.4765625 C-209.43402344 135.10371094 -209.43402344 135.10371094 -209.390625 133.703125 C-209.33875796 131.78404443 -209.29442292 129.86474474 -209.2578125 127.9453125 C-209.04366869 121.59237956 -208.31124935 117.81124935 -203.6875 113.1875 C-201.3046875 112.7734375 -201.3046875 112.7734375 -198.5625 112.5625 C-197.65242188 112.48773438 -196.74234375 112.41296875 -195.8046875 112.3359375 C-195.10601562 112.28695312 -194.40734375 112.23796875 -193.6875 112.1875 C-194.60111405 107.88705408 -196.36593139 105.05261627 -199.6875 102.1875 C-205.77141755 98.39044507 -211.40347493 95.19422385 -218.6875 96.1875 Z M135.125 105.3125 C133.53998537 107.82666114 132.91131204 109.36884938 132.3125 112.1875 C133.34310547 112.27837891 133.34310547 112.27837891 134.39453125 112.37109375 C135.29558594 112.45488281 136.19664062 112.53867188 137.125 112.625 C138.01832031 112.70621094 138.91164063 112.78742188 139.83203125 112.87109375 C142.3125 113.1875 142.3125 113.1875 145.3125 114.1875 C148.22683225 120.22222839 147.69586577 127.01989404 147.79101562 133.57617188 C147.96882973 139.66088368 148.751068 143.07718971 152.6796875 147.84765625 C158.04833312 152.84077484 164.32446864 154.40108597 171.3125 156.1875 C170.50510304 153.70233907 170.50510304 153.70233907 169.3125 151.1875 C166.5677429 149.96601979 166.5677429 149.96601979 163.3125 149.1875 C159.2188808 147.79983248 156.9144799 146.99641049 154.3125 143.5 C153.06858688 139.3795378 153.04381574 136.29803701 154.3125 132.1875 C156.13359266 129.42648854 157.35451097 127.66649452 160.3125 126.1875 C165.10001753 125.60342286 168.48298303 125.75792871 172.8125 128 C175.3125 130.1875 175.3125 130.1875 176.3125 133.1875 C176.44449822 137.21344574 176.46812931 140.51310633 175.5625 144.4375 C174.97533107 147.33963274 174.97533107 147.33963274 177.25 149.5625 C177.930625 150.09875 178.61125 150.635 179.3125 151.1875 C181.60348188 142.96691795 182.17583338 135.68847421 178.85546875 127.66796875 C176.03829006 123.00986142 171.55075869 121.31109192 166.75 119.125 C157.9332779 115.08866643 157.9332779 115.08866643 155.2109375 111.13671875 C153.7304083 106.27672072 154.36825169 102.40926074 156.375 97.6875 C156.684375 97.1925 156.99375 96.6975 157.3125 96.1875 C149.22018221 95.08400212 140.46994915 99.20398669 135.125 105.3125 Z M-228.6875 133.1875 C-229.3475 133.8475 -230.0075 134.5075 -230.6875 135.1875 C-230.67827298 137.73463404 -230.67827298 137.73463404 -229.6875 140.1875 C-227.71991727 141.54770151 -227.71991727 141.54770151 -225.6875 142.1875 C-223.54182087 140.45894074 -223.54182087 140.45894074 -221.6875 138.1875 C-221.82391377 135.96891747 -221.82391377 135.96891747 -222.6875 134.1875 C-225.58823181 133.50948966 -225.58823181 133.50948966 -228.6875 133.1875 Z M163.3125 133.1875 C161.4770201 134.52128575 161.4770201 134.52128575 160.3125 136.1875 C161.09380071 138.68302484 161.09380071 138.68302484 162.3125 141.1875 C163.3025 141.5175 164.2925 141.8475 165.3125 142.1875 C167.50288423 140.81581762 167.50288423 140.81581762 169.3125 139.1875 C168.9825 137.5375 168.6525 135.8875 168.3125 134.1875 C165.96716049 133.41793864 165.96716049 133.41793864 163.3125 133.1875 Z " fill="#f0f0f0f0" transform="translate(286.6875,133.8125)"/>
</svg>
